<svg version="1.1" id="Layer_1" xmlns="http://www.w3.org/2000/svg" xmlns:xlink="http://www.w3.org/1999/xlink" x="0px" y="0px"
	 width="100%" viewBox="0 0 496 496" enable-background="new 0 0 496 496" xml:space="preserve">
<path fill="#F3E8B2" opacity="1.000000" stroke="none" 
	d="
M57.169140,301.602966 
	C51.240971,281.274323 52.156998,261.907867 63.331539,243.979874 
	C73.240845,228.081772 88.307182,220.661163 106.794807,219.616974 
	C118.177376,218.974060 129.152527,220.359848 139.056000,226.348465 
	C154.730560,235.826843 160.989487,250.713791 162.344971,268.217621 
	C162.550125,270.866760 162.453003,273.551758 162.323425,276.211823 
	C162.003937,282.770569 160.319977,284.360168 153.754639,284.366211 
	C132.927383,284.385376 112.100082,284.375671 91.272804,284.386505 
	C83.663193,284.390442 82.850975,285.442596 84.602531,292.925568 
	C89.815933,315.198151 109.909485,324.465820 131.646332,314.573944 
	C135.281754,312.919556 138.763275,310.928040 142.392181,309.258057 
	C147.609116,306.857208 150.680939,307.653046 154.181290,312.086334 
	C154.903839,313.001465 155.589294,313.945740 156.298096,314.871826 
	C162.118500,322.476715 162.104340,322.458313 154.730148,328.419312 
	C144.488403,336.698334 132.493607,340.367950 119.630928,341.247223 
	C110.490463,341.872040 101.355408,341.660461 92.446442,338.680786 
	C74.238541,332.590942 62.973526,320.005188 57.169140,301.602966 
M132.925461,253.680054 
	C127.276924,243.580841 118.764565,239.724075 105.891479,241.431488 
	C96.486412,242.678940 88.285370,250.168427 85.659409,259.908173 
	C84.334663,264.821686 85.409294,266.497467 90.494492,266.556946 
	C101.816055,266.689423 113.140015,266.617462 124.462997,266.627014 
	C137.440460,266.638000 137.474564,266.589630 132.925461,253.680054 
z"/>
<path fill="#F3E8B2" opacity="1.000000" stroke="none" 
	d="
M376.319580,337.842041 
	C354.223846,329.256653 343.993500,312.287994 340.645264,290.174255 
	C338.683441,277.217346 339.872589,264.616791 344.833038,252.454315 
	C352.931702,232.597351 372.192841,219.960999 393.685638,219.552567 
	C409.312561,219.255600 423.595551,222.197235 434.671204,234.068512 
	C446.108093,246.326920 449.200806,261.408997 448.258881,277.586731 
	C447.987915,282.240448 445.473969,284.507416 440.369324,284.460083 
	C419.379852,284.265411 398.387512,284.373016 377.396210,284.397095 
	C369.690125,284.405945 368.920990,285.396637 370.588898,292.848724 
	C375.572754,315.116211 395.351654,324.346283 417.551422,314.690613 
	C421.056732,313.165955 424.374146,311.215027 427.824677,309.557495 
	C433.452332,306.854218 436.673920,307.632019 440.419922,312.471313 
	C441.235657,313.525085 442.046234,314.582855 442.867126,315.632599 
	C448.111755,322.339539 448.115295,322.607239 441.248199,328.123291 
	C431.025574,336.334717 419.115936,340.345612 406.225128,341.223572 
	C396.250336,341.902924 386.207520,341.975342 376.319580,337.842041 
M408.137207,243.196426 
	C392.514465,237.009857 376.939636,243.857147 371.751099,259.193237 
	C369.977631,264.435120 371.280396,266.574402 376.584778,266.604401 
	C390.042297,266.680450 403.501373,266.540222 416.958038,266.671692 
	C421.219879,266.713318 422.285858,264.613220 421.450409,261.034149 
	C419.685211,253.472076 416.285187,247.010361 408.137207,243.196426 
z"/>
<path fill="#F3E8B2" opacity="1.000000" stroke="none" 
	d="
M220.268112,336.669312 
	C219.922195,339.523041 218.183975,339.948181 216.230453,339.953979 
	C209.067307,339.975189 201.903320,339.895630 194.741104,339.979004 
	C190.460831,340.028839 190.656631,337.197937 190.580902,334.218719 
	C189.937424,308.906403 190.023102,283.595612 190.588150,258.284058 
	C190.625320,256.618927 190.606277,254.952225 190.593231,253.286407 
	C190.521027,244.065628 190.481827,244.020508 181.561707,242.276794 
	C174.268204,240.851059 169.505234,229.919495 173.429596,223.642929 
	C174.506119,221.921143 176.212280,222.112106 177.868515,222.053482 
	C189.947693,221.625900 189.947571,221.622421 190.678497,209.365311 
	C192.051117,186.347290 208.384933,170.769440 231.407837,170.637054 
	C236.388412,170.608414 241.376312,170.349609 246.346313,171.384689 
	C249.484955,172.038345 251.163864,173.178757 250.535385,176.703491 
	C250.188721,178.647858 250.374283,180.690338 250.353043,182.688934 
	C250.264282,191.042084 249.283051,192.156662 241.112244,193.004990 
	C239.622757,193.159622 238.119263,193.176773 236.622803,193.266846 
	C226.521027,193.874969 219.990433,199.812759 219.455246,209.919479 
	C218.683685,224.490295 218.919693,221.743011 230.210556,221.967087 
	C235.206482,222.066254 240.205948,222.019394 245.203522,221.990036 
	C248.045731,221.973328 249.435211,223.100494 249.431015,226.156921 
	C249.424850,230.645905 249.758240,235.135574 249.955704,239.624557 
	C250.086349,242.594635 248.807770,243.733246 245.733994,243.595337 
	C239.913361,243.334229 234.076828,243.404160 228.246735,243.383926 
	C220.745407,243.357895 220.241730,243.854584 220.244797,251.242630 
	C220.256531,279.563446 220.281189,307.884277 220.268112,336.669312 
z"/>
<path fill="#F3E8B2" opacity="1.000000" stroke="none" 
	d="
M272.615356,212.844818 
	C272.931183,186.948746 289.444336,170.609558 314.875061,170.640778 
	C319.360718,170.646271 323.876892,170.319763 328.315125,171.341721 
	C329.934265,171.714584 332.188568,171.885712 332.356262,173.717041 
	C332.867584,179.301254 333.442657,185.029938 330.767517,190.280151 
	C329.664093,192.445709 327.120331,192.334442 324.996216,192.661987 
	C323.845825,192.839371 322.680542,193.141129 321.534485,193.092468 
	C306.621796,192.459396 300.333801,202.304794 301.349426,216.978607 
	C301.590271,220.458496 303.015808,222.061829 306.633118,221.980621 
	C313.124420,221.834915 319.624359,222.062485 326.115082,221.904846 
	C329.860016,221.813919 331.699921,223.009735 331.414612,227.066254 
	C331.146454,230.878754 331.069855,234.745804 331.391663,238.548004 
	C331.771057,243.030731 329.484497,243.975266 325.723083,243.828430 
	C320.069031,243.607697 314.409698,243.467880 308.751556,243.419983 
	C302.773285,243.369370 302.260803,243.878525 302.257080,250.035736 
	C302.240326,277.848694 302.272064,305.661682 302.281830,333.474640 
	C302.283966,339.647095 302.014526,339.929840 295.810730,339.964508 
	C289.981873,339.997070 284.138916,339.734131 278.328064,340.061188 
	C273.623016,340.325989 272.476532,338.532166 272.511414,333.982361 
	C272.719574,306.837128 272.622437,279.689423 272.603668,252.542572 
	C272.597900,244.206665 272.563202,244.206680 264.416504,242.575195 
	C256.026428,240.894958 251.566025,232.033966 255.125565,224.173370 
	C255.766449,222.758087 256.915466,222.261749 258.309601,222.181259 
	C260.137482,222.075745 261.970245,222.036133 263.801514,222.011169 
	C272.282623,221.895660 272.453796,221.732040 272.615356,212.844818 
z"/>
</svg>